<mxfile host="app.diagrams.net" modified="2023-12-02T21:08:05.414Z" agent="Mozilla/5.0 (Windows NT 10.0; Win64; x64) AppleWebKit/537.36 (KHTML, like Gecko) Chrome/119.0.0.0 Safari/537.36" etag="biTfNaBcvyCtuVMYwJ12" version="22.1.5" type="github">
  <diagram id="07fea595-8f29-1299-0266-81d95cde20df" name="Page-1">
    <mxGraphModel dx="4247" dy="971" grid="1" gridSize="10" guides="1" tooltips="1" connect="1" arrows="1" fold="1" page="1" pageScale="1" pageWidth="1169" pageHeight="827" background="none" math="0" shadow="0">
      <root>
        <mxCell id="0" />
        <mxCell id="1" parent="0" />
        <mxCell id="698" value="" style="rounded=0;whiteSpace=wrap;html=1;shadow=0;labelBackgroundColor=none;strokeColor=none;strokeWidth=3;fillColor=#e8edf0;fontSize=60;fontColor=#2F5B7C;align=left;" parent="1" vertex="1">
          <mxGeometry x="-2290" y="32" width="2250" height="1598" as="geometry" />
        </mxCell>
        <mxCell id="699" value="&lt;div style=&quot;font-size: 26px&quot;&gt;&lt;font style=&quot;font-size: 26px&quot;&gt;Customer Relationships&lt;/font&gt;&lt;/div&gt;&lt;div&gt;&lt;br&gt;&lt;/div&gt;&lt;div&gt;What type of relationship does each of our Customer&lt;/div&gt;&lt;div&gt;Segments expect us to establish and maintain with them?&lt;/div&gt;&lt;div&gt;Which ones have we established?&lt;/div&gt;&lt;div&gt;How are they integrated with the rest of our business model?&lt;/div&gt;&lt;div&gt;How costly are they?&lt;/div&gt;&lt;div&gt;&lt;br&gt;&lt;/div&gt;&lt;div style=&quot;font-size: 10px&quot;&gt;&lt;font style=&quot;font-size: 10px&quot;&gt;&lt;b&gt;Examples&lt;/b&gt;&lt;/font&gt;&lt;/div&gt;&lt;div style=&quot;font-size: 10px&quot;&gt;&lt;font style=&quot;font-size: 10px&quot;&gt;Personal assistance&lt;/font&gt;&lt;/div&gt;&lt;div style=&quot;font-size: 10px&quot;&gt;&lt;font style=&quot;font-size: 10px&quot;&gt;Dedicated Personal Assistance&lt;/font&gt;&lt;/div&gt;&lt;div style=&quot;font-size: 10px&quot;&gt;&lt;font style=&quot;font-size: 10px&quot;&gt;Self-Service&lt;/font&gt;&lt;/div&gt;&lt;div style=&quot;font-size: 10px&quot;&gt;&lt;font style=&quot;font-size: 10px&quot;&gt;Automated Services&lt;/font&gt;&lt;/div&gt;&lt;div style=&quot;font-size: 10px&quot;&gt;&lt;font style=&quot;font-size: 10px&quot;&gt;Communities&lt;/font&gt;&lt;/div&gt;&lt;div style=&quot;font-size: 10px&quot;&gt;&lt;font style=&quot;font-size: 10px&quot;&gt;Co-creation&lt;/font&gt;&lt;/div&gt;" style="rounded=0;whiteSpace=wrap;html=1;shadow=0;labelBackgroundColor=none;strokeColor=#e8edf0;strokeWidth=5;fillColor=#ffffff;fontSize=12;fontColor=#2F5B7C;align=left;verticalAlign=top;spacing=30;" parent="1" vertex="1">
          <mxGeometry x="-950" y="220" width="420" height="450" as="geometry" />
        </mxCell>
        <mxCell id="700" value="&lt;h1 style=&quot;text-align: center; font-size: 46px;&quot;&gt;&lt;/h1&gt;&lt;font style=&quot;font-size: 46px;&quot;&gt;&lt;br&gt;&lt;/font&gt;" style="rounded=0;whiteSpace=wrap;html=1;shadow=0;labelBackgroundColor=none;strokeColor=#e8edf0;strokeWidth=5;fillColor=#ffffff;fontSize=12;fontColor=#2F5B7C;align=left;verticalAlign=top;spacing=30;" parent="1" vertex="1">
          <mxGeometry x="-2210" y="220" width="420" height="900" as="geometry" />
        </mxCell>
        <mxCell id="701" value="" style="rounded=0;whiteSpace=wrap;html=1;shadow=0;labelBackgroundColor=none;strokeColor=#e8edf0;strokeWidth=5;fillColor=#ffffff;fontSize=12;fontColor=#2F5B7C;align=left;verticalAlign=top;spacing=30;" parent="1" vertex="1">
          <mxGeometry x="-1790" y="220" width="420" height="450" as="geometry" />
        </mxCell>
        <mxCell id="702" value="&lt;div&gt;&lt;font style=&quot;font-size: 26px&quot;&gt;Key Resources&lt;/font&gt;&lt;/div&gt;&lt;div&gt;&lt;br&gt;&lt;/div&gt;&lt;div&gt;What Key Resources do our Value Propositions require?&lt;/div&gt;&lt;div&gt;Our Distribution Channels? Customer Relationships?&lt;/div&gt;&lt;div&gt;Revenue Streams?&lt;/div&gt;&lt;div&gt;&lt;br&gt;&lt;/div&gt;&lt;div style=&quot;font-size: 10px&quot;&gt;&lt;font style=&quot;font-size: 10px&quot;&gt;&lt;b&gt;Types of resources&lt;/b&gt;&lt;/font&gt;&lt;/div&gt;&lt;div style=&quot;font-size: 10px&quot;&gt;&lt;font style=&quot;font-size: 10px&quot;&gt;Physical&lt;/font&gt;&lt;/div&gt;&lt;div style=&quot;font-size: 10px&quot;&gt;&lt;font style=&quot;font-size: 10px&quot;&gt;Intellectual (brand patents, copyrights, data)&lt;/font&gt;&lt;/div&gt;&lt;div style=&quot;font-size: 10px&quot;&gt;&lt;font style=&quot;font-size: 10px&quot;&gt;Human&lt;/font&gt;&lt;/div&gt;&lt;div style=&quot;font-size: 10px&quot;&gt;&lt;font style=&quot;font-size: 10px&quot;&gt;Financial&lt;/font&gt;&lt;/div&gt;" style="rounded=0;whiteSpace=wrap;html=1;shadow=0;labelBackgroundColor=none;strokeColor=#e8edf0;strokeWidth=5;fillColor=#ffffff;fontSize=12;fontColor=#2F5B7C;align=left;verticalAlign=top;spacing=30;" parent="1" vertex="1">
          <mxGeometry x="-1790" y="670" width="420" height="450" as="geometry" />
        </mxCell>
        <mxCell id="703" value="&lt;div style=&quot;font-size: 26px&quot;&gt;&lt;font style=&quot;font-size: 26px&quot;&gt;Value Propositions&lt;/font&gt;&lt;/div&gt;&lt;div&gt;&lt;br&gt;&lt;/div&gt;&lt;div&gt;What value do we deliver to the customer?&lt;/div&gt;&lt;div&gt;Which one of our customer’s problems are we helping to solve?&lt;/div&gt;&lt;div&gt;What bundles of products and services are we offering to each Customer Segment?&lt;/div&gt;&lt;div&gt;Which customer needs are we satisfying?&lt;/div&gt;&lt;div&gt;&lt;br&gt;&lt;/div&gt;&lt;div style=&quot;font-size: 10px&quot;&gt;&lt;br&gt;&lt;/div&gt;&lt;div style=&quot;font-size: 17px;&quot;&gt;&lt;font style=&quot;font-size: 17px;&quot;&gt;&lt;b style=&quot;&quot;&gt;&quot;Effortless and reliable performance Temporary Housing Solutions for Students:&lt;/b&gt;&lt;/font&gt;&lt;/div&gt;&lt;div style=&quot;font-size: 17px;&quot;&gt;&lt;font style=&quot;font-size: 17px;&quot;&gt;&lt;b&gt;&lt;br&gt;&lt;/b&gt;&lt;/font&gt;&lt;/div&gt;&lt;div style=&quot;&quot;&gt;&lt;font style=&quot;&quot;&gt;&lt;font style=&quot;font-size: 15px;&quot;&gt;Our application provides a community or seamless platform connecting students with short-term housing options, offering convenience, affordability, and a variety of choices to meet the unique needs of academic journeys, whether it&#39;s a brief stay for a workshop, exchange program, or internship.&quot;&lt;/font&gt;&lt;br&gt;&lt;/font&gt;&lt;/div&gt;" style="rounded=0;whiteSpace=wrap;html=1;shadow=0;labelBackgroundColor=none;strokeColor=#e8edf0;strokeWidth=5;fillColor=#ffffff;fontSize=12;fontColor=#2F5B7C;align=left;verticalAlign=top;spacing=30;" parent="1" vertex="1">
          <mxGeometry x="-1370" y="220" width="420" height="900" as="geometry" />
        </mxCell>
        <mxCell id="704" value="&lt;div&gt;&lt;font style=&quot;font-size: 26px&quot;&gt;Customer Segments&lt;/font&gt;&lt;/div&gt;&lt;div&gt;&lt;br&gt;&lt;/div&gt;&lt;div&gt;For whom are we creating value?&lt;/div&gt;&lt;div&gt;Who are our most important customers?&lt;/div&gt;&lt;div&gt;&lt;b&gt;&lt;br&gt;&lt;/b&gt;&lt;/div&gt;&lt;div style=&quot;font-size: 15px;&quot;&gt;&lt;div&gt;&lt;b style=&quot;&quot;&gt;&lt;font style=&quot;font-size: 15px;&quot;&gt;1. *Students Seeking Short-Term Housing:*&lt;/font&gt; &lt;/b&gt;Targeting students who require temporary accommodation for short durations, such as those attending workshops, seminars, or short courses.&lt;/div&gt;&lt;div&gt;&lt;br&gt;&lt;/div&gt;&lt;div&gt;&lt;b&gt;2. *University Exchange Students:* &lt;/b&gt;Focusing on international or domestic exchange students in need of housing during their exchange programs.&lt;/div&gt;&lt;div&gt;&lt;br&gt;&lt;/div&gt;&lt;div&gt;&lt;b&gt;3. *Conference Attendees:*&lt;/b&gt; Catering to individuals attending conferences or events hosted by universities, who may require temporary housing.&lt;/div&gt;&lt;div&gt;&lt;br&gt;&lt;/div&gt;&lt;div&gt;&lt;b&gt;4&lt;/b&gt;. &lt;b&gt;*Interns:* &lt;/b&gt;Targeting students participating in internships that last for a limited period, needing short-term housing solutions.&lt;/div&gt;&lt;div&gt;&lt;br&gt;&lt;/div&gt;&lt;div&gt;&lt;b&gt;5. *Visiting Faculty and Researchers:* &lt;/b&gt;Providing housing options for visiting academics or researchers who are temporarily affiliated with universities.&lt;/div&gt;&lt;div&gt;&lt;br&gt;&lt;/div&gt;&lt;div&gt;&lt;b&gt;6. *Parents and Relatives of Students:* &lt;/b&gt;Offering accommodation options for family members visiting students for a short period.&lt;/div&gt;&lt;/div&gt;&lt;div&gt;&lt;br&gt;&lt;/div&gt;" style="rounded=0;whiteSpace=wrap;html=1;shadow=0;labelBackgroundColor=none;strokeColor=#e8edf0;strokeWidth=5;fillColor=#ffffff;fontSize=12;fontColor=#2F5B7C;align=left;verticalAlign=top;spacing=30;" parent="1" vertex="1">
          <mxGeometry x="-527" y="220" width="420" height="900" as="geometry" />
        </mxCell>
        <mxCell id="705" value="&lt;div&gt;&lt;font style=&quot;font-size: 26px&quot;&gt;Channels&lt;/font&gt;&lt;/div&gt;&lt;div&gt;&lt;br&gt;&lt;/div&gt;&lt;div&gt;Through which Channels do our Customer Segments&lt;/div&gt;&lt;div&gt;want to be reached?&lt;/div&gt;&lt;div&gt;How are we reaching them now?&lt;/div&gt;&lt;div&gt;How are our Channels integrated?&lt;/div&gt;&lt;div&gt;Which ones work best?&lt;/div&gt;&lt;div&gt;Which ones are most cost-efficient?&lt;/div&gt;&lt;div&gt;How are we integrating them with customer routines?&lt;/div&gt;&lt;div&gt;&lt;br&gt;&lt;/div&gt;&lt;div style=&quot;font-size: 10px&quot;&gt;&lt;font style=&quot;font-size: 10px&quot;&gt;&lt;b&gt;Channel phases&lt;/b&gt;&lt;/font&gt;&lt;/div&gt;&lt;div style=&quot;font-size: 10px&quot;&gt;&lt;font style=&quot;font-size: 10px&quot;&gt;1. Awareness&lt;/font&gt;&lt;/div&gt;&lt;div style=&quot;font-size: 10px&quot;&gt;&lt;font style=&quot;font-size: 10px&quot;&gt;&amp;nbsp; &amp;nbsp; How do we raise awareness about our company’s products and services?&lt;/font&gt;&lt;/div&gt;&lt;div style=&quot;font-size: 10px&quot;&gt;&lt;font style=&quot;font-size: 10px&quot;&gt;2. Evaluation&lt;/font&gt;&lt;/div&gt;&lt;div style=&quot;font-size: 10px&quot;&gt;&lt;font style=&quot;font-size: 10px&quot;&gt;&amp;nbsp; &amp;nbsp; How do we help customers evaluate our organization’s Value Proposition?&lt;/font&gt;&lt;/div&gt;&lt;div style=&quot;font-size: 10px&quot;&gt;&lt;font style=&quot;font-size: 10px&quot;&gt;3. Purchase&lt;/font&gt;&lt;/div&gt;&lt;div style=&quot;font-size: 10px&quot;&gt;&lt;font style=&quot;font-size: 10px&quot;&gt;&amp;nbsp; &amp;nbsp; How do we allow customers to purchase specific products and services?&lt;/font&gt;&lt;/div&gt;&lt;div style=&quot;font-size: 10px&quot;&gt;&lt;font style=&quot;font-size: 10px&quot;&gt;4. Delivery&lt;/font&gt;&lt;/div&gt;&lt;div style=&quot;font-size: 10px&quot;&gt;&lt;font style=&quot;font-size: 10px&quot;&gt;&amp;nbsp; &amp;nbsp; How do we deliver a Value Proposition to customers?&lt;/font&gt;&lt;/div&gt;&lt;div style=&quot;font-size: 10px&quot;&gt;&lt;font style=&quot;font-size: 10px&quot;&gt;5. After sales&lt;/font&gt;&lt;/div&gt;&lt;div style=&quot;font-size: 10px&quot;&gt;&lt;font style=&quot;font-size: 10px&quot;&gt;&amp;nbsp; &amp;nbsp; How do we provide post-purchase customer support?&lt;/font&gt;&lt;/div&gt;&lt;div style=&quot;font-size: 10px&quot;&gt;&lt;br&gt;&lt;/div&gt;" style="rounded=0;whiteSpace=wrap;html=1;shadow=0;labelBackgroundColor=none;strokeColor=#e8edf0;strokeWidth=5;fillColor=#ffffff;fontSize=12;fontColor=#2F5B7C;align=left;verticalAlign=top;spacing=30;" parent="1" vertex="1">
          <mxGeometry x="-950" y="670" width="420" height="450" as="geometry" />
        </mxCell>
        <mxCell id="706" value="&lt;div style=&quot;font-size: 26px&quot;&gt;&lt;font style=&quot;font-size: 26px&quot;&gt;Cost Structure&lt;/font&gt;&lt;/div&gt;&lt;div&gt;&lt;br&gt;&lt;/div&gt;&lt;div&gt;&lt;br&gt;&lt;/div&gt;" style="rounded=0;whiteSpace=wrap;html=1;shadow=0;labelBackgroundColor=none;strokeColor=#e8edf0;strokeWidth=5;fillColor=#ffffff;fontSize=12;fontColor=#2F5B7C;align=left;verticalAlign=top;spacing=30;" parent="1" vertex="1">
          <mxGeometry x="-2210" y="1120" width="1050" height="330" as="geometry" />
        </mxCell>
        <mxCell id="707" value="&lt;div style=&quot;font-size: 26px&quot;&gt;&lt;font style=&quot;font-size: 26px&quot;&gt;Revenue Streams&lt;/font&gt;&lt;/div&gt;&lt;div&gt;&lt;br&gt;&lt;/div&gt;&lt;div&gt;&lt;br&gt;&lt;/div&gt;" style="rounded=0;whiteSpace=wrap;html=1;shadow=0;labelBackgroundColor=none;strokeColor=#e8edf0;strokeWidth=5;fillColor=#ffffff;fontSize=12;fontColor=#2F5B7C;align=left;verticalAlign=top;spacing=30;" parent="1" vertex="1">
          <mxGeometry x="-1160" y="1120" width="1050" height="330" as="geometry" />
        </mxCell>
        <mxCell id="708" value="The Business Model Canvas&lt;br&gt;" style="text;html=1;resizable=0;points=[];autosize=1;align=left;verticalAlign=top;spacingTop=-4;fontSize=60;fontColor=#2F5B7C;" parent="1" vertex="1">
          <mxGeometry x="-2210" y="110" width="780" height="70" as="geometry" />
        </mxCell>
        <mxCell id="709" value="" style="html=1;verticalLabelPosition=bottom;labelBackgroundColor=#ffffff;verticalAlign=top;shadow=0;dashed=0;strokeWidth=4;shape=mxgraph.ios7.misc.check;strokeColor=#2F5B7C;fillColor=#ffffff;gradientColor=none;fontSize=19;fontColor=#2F5B7C;align=left;" parent="1" vertex="1">
          <mxGeometry x="-1410" y="252" width="20" height="16" as="geometry" />
        </mxCell>
        <mxCell id="710" value="" style="shape=mxgraph.signs.travel.present;html=1;fillColor=#2F5B7C;strokeColor=none;verticalLabelPosition=bottom;verticalAlign=top;align=center;shadow=0;labelBackgroundColor=none;fontSize=12;fontColor=#2F5B7C;" parent="1" vertex="1">
          <mxGeometry x="-1000" y="235" width="31" height="40" as="geometry" />
        </mxCell>
        <mxCell id="711" value="" style="html=1;verticalLabelPosition=bottom;labelBackgroundColor=#ffffff;verticalAlign=top;strokeWidth=3;strokeColor=none;fillColor=#2F5B7C;shadow=0;dashed=0;shape=mxgraph.ios7.icons.heart;fontSize=12;fontColor=#2F5B7C;align=left;" parent="1" vertex="1">
          <mxGeometry x="-594.9999999999997" y="242" width="41" height="36" as="geometry" />
        </mxCell>
        <mxCell id="715" value="" style="shadow=0;dashed=0;html=1;strokeColor=none;labelPosition=center;verticalLabelPosition=bottom;verticalAlign=top;shape=mxgraph.mscae.cloud.data_factory;fillColor=#2F5B7C;labelBackgroundColor=none;fontSize=10;fontColor=#2F5B7C;align=left;" parent="1" vertex="1">
          <mxGeometry x="-1440" y="690" width="50" height="50" as="geometry" />
        </mxCell>
        <mxCell id="716" value="" style="shape=mxgraph.signs.transportation.truck_6;html=1;fillColor=#2F5B7C;strokeColor=none;verticalLabelPosition=bottom;verticalAlign=top;align=center;shadow=0;labelBackgroundColor=none;fontSize=10;fontColor=#2F5B7C;aspect=fixed;" parent="1" vertex="1">
          <mxGeometry x="-590" y="690" width="40" height="50" as="geometry" />
        </mxCell>
        <mxCell id="717" value="" style="shape=image;html=1;verticalAlign=top;verticalLabelPosition=bottom;labelBackgroundColor=#ffffff;imageAspect=0;aspect=fixed;image=https://cdn4.iconfinder.com/data/icons/evil-icons-user-interface/64/price-128.png;shadow=0;strokeColor=#e8edf0;strokeWidth=3;fillColor=#2F5B7C;gradientColor=none;fontSize=10;fontColor=#2F5B7C;align=left;" parent="1" vertex="1">
          <mxGeometry x="-1226" y="1140" width="58" height="58" as="geometry" />
        </mxCell>
        <mxCell id="718" value="" style="dashed=0;html=1;shape=mxgraph.aws3.checklist_cost;fillColor=#2F5B7C;gradientColor=none;shadow=0;labelBackgroundColor=none;strokeColor=none;strokeWidth=3;fontSize=10;fontColor=#2F5B7C;align=left;" parent="1" vertex="1">
          <mxGeometry x="-203.5" y="1131.5" width="67.5" height="75" as="geometry" />
        </mxCell>
        <mxCell id="719" value="" style="shadow=0;dashed=0;html=1;strokeColor=none;fillColor=#2F5B7C;labelPosition=center;verticalLabelPosition=bottom;verticalAlign=top;outlineConnect=0;shape=mxgraph.office.concepts.link;labelBackgroundColor=none;fontSize=10;fontColor=#000000;align=left;" parent="1" vertex="1">
          <mxGeometry x="-1871" y="241" width="61" height="21" as="geometry" />
        </mxCell>
        <mxCell id="720" value="" style="group" parent="1" vertex="1" connectable="0">
          <mxGeometry x="-203.5" y="245" width="69" height="50" as="geometry" />
        </mxCell>
        <mxCell id="721" value="" style="shadow=0;dashed=0;html=1;strokeColor=#FFFFFF;labelPosition=center;verticalLabelPosition=bottom;verticalAlign=top;outlineConnect=0;shape=mxgraph.office.users.user;fillColor=#2F5B7C;labelBackgroundColor=none;fontSize=10;fontColor=#000000;align=left;strokeWidth=2;" parent="720" vertex="1">
          <mxGeometry x="31" y="-5" width="46" height="50" as="geometry" />
        </mxCell>
        <mxCell id="722" value="" style="shadow=0;dashed=0;html=1;strokeColor=#FFFFFF;labelPosition=center;verticalLabelPosition=bottom;verticalAlign=top;outlineConnect=0;shape=mxgraph.office.users.user;fillColor=#2F5B7C;labelBackgroundColor=none;fontSize=10;fontColor=#000000;align=left;strokeWidth=2;" parent="720" vertex="1">
          <mxGeometry width="46" height="50" as="geometry" />
        </mxCell>
        <mxCell id="6P7ZVfrqg9KLVd1m-htQ-722" value="&lt;h1 style=&quot;&quot;&gt;&lt;font color=&quot;#000000&quot; style=&quot;font-size: 45px;&quot;&gt;&amp;nbsp;Cloud Servers&lt;/font&gt;&lt;/h1&gt;" style="shape=dataStorage;whiteSpace=wrap;html=1;fixedSize=1;rotation=0;align=center;fillColor=#dae8fc;strokeColor=#6c8ebf;fillStyle=auto;gradientColor=#7ea6e0;fontColor=#3399FF;" parent="1" vertex="1">
          <mxGeometry x="-2200" y="380" width="380" height="155" as="geometry" />
        </mxCell>
        <mxCell id="6P7ZVfrqg9KLVd1m-htQ-723" value="&lt;span style=&quot;font-size: 53px;&quot;&gt;Key Partners&lt;/span&gt;&lt;br&gt;&lt;font style=&quot;border-color: var(--border-color); font-family: Helvetica; font-style: normal; font-variant-ligatures: normal; font-variant-caps: normal; font-weight: 400; letter-spacing: normal; orphans: 2; text-indent: 0px; text-transform: none; widows: 2; word-spacing: 0px; -webkit-text-stroke-width: 0px; text-decoration-thickness: initial; text-decoration-style: initial; text-decoration-color: initial; background-color: rgb(251, 251, 251); font-size: 53px;&quot;&gt;&lt;font style=&quot;font-size: 53px;&quot;&gt;&lt;br class=&quot;Apple-interchange-newline&quot;&gt;&lt;br&gt;&lt;/font&gt;&lt;br&gt;&lt;/font&gt;" style="shape=dataStorage;whiteSpace=wrap;html=1;fixedSize=1;fillColor=none;strokeColor=none;align=left;verticalAlign=top;fontColor=#2F5B7C;" parent="1" vertex="1">
          <mxGeometry x="-2200" y="241" width="380" height="92" as="geometry" />
        </mxCell>
        <mxCell id="6P7ZVfrqg9KLVd1m-htQ-724" value="&lt;h1 style=&quot;&quot;&gt;&lt;font color=&quot;#000000&quot; style=&quot;font-size: 36px;&quot;&gt;Verification company&lt;/font&gt;&lt;/h1&gt;" style="shape=dataStorage;whiteSpace=wrap;html=1;fixedSize=1;rotation=0;align=left;fillColor=#dae8fc;strokeColor=#6c8ebf;fillStyle=auto;gradientColor=#7ea6e0;fontColor=#3399FF;" parent="1" vertex="1">
          <mxGeometry x="-2200" y="560" width="390" height="155" as="geometry" />
        </mxCell>
        <mxCell id="6P7ZVfrqg9KLVd1m-htQ-725" value="&lt;font style=&quot;border-color: var(--border-color); font-family: Helvetica; font-style: normal; font-variant-ligatures: normal; font-variant-caps: normal; font-weight: 400; letter-spacing: normal; orphans: 2; text-indent: 0px; text-transform: none; widows: 2; word-spacing: 0px; -webkit-text-stroke-width: 0px; text-decoration-thickness: initial; text-decoration-style: initial; text-decoration-color: initial; background-color: rgb(251, 251, 251); font-size: 53px;&quot;&gt;&lt;font style=&quot;font-size: 53px;&quot;&gt;Key Activities&lt;br class=&quot;Apple-interchange-newline&quot;&gt;&lt;br&gt;&lt;/font&gt;&lt;br&gt;&lt;/font&gt;" style="shape=dataStorage;whiteSpace=wrap;html=1;fixedSize=1;fillColor=none;strokeColor=none;align=left;verticalAlign=top;fontColor=#2F5B7C;" parent="1" vertex="1">
          <mxGeometry x="-1780" y="241" width="380" height="92" as="geometry" />
        </mxCell>
        <mxCell id="6P7ZVfrqg9KLVd1m-htQ-726" value="&lt;h1 style=&quot;&quot;&gt;&lt;font color=&quot;#000000&quot; style=&quot;font-size: 35px;&quot;&gt;Software dev&lt;/font&gt;&lt;/h1&gt;" style="shape=dataStorage;whiteSpace=wrap;html=1;fixedSize=1;rotation=0;align=center;fillColor=#dae8fc;strokeColor=#6c8ebf;fillStyle=auto;gradientColor=#7ea6e0;fontColor=#3399FF;" parent="1" vertex="1">
          <mxGeometry x="-1770" y="324" width="370" height="90" as="geometry" />
        </mxCell>
        <mxCell id="6P7ZVfrqg9KLVd1m-htQ-727" value="&lt;h1 style=&quot;&quot;&gt;&lt;font color=&quot;#000000&quot; style=&quot;font-size: 35px;&quot;&gt;Review Ads&lt;/font&gt;&lt;/h1&gt;" style="shape=dataStorage;whiteSpace=wrap;html=1;fixedSize=1;rotation=0;align=center;fillColor=#dae8fc;strokeColor=#6c8ebf;fillStyle=auto;gradientColor=#7ea6e0;fontColor=#3399FF;" parent="1" vertex="1">
          <mxGeometry x="-1765" y="445" width="370" height="90" as="geometry" />
        </mxCell>
        <mxCell id="6P7ZVfrqg9KLVd1m-htQ-728" value="&lt;h1 style=&quot;&quot;&gt;&lt;font color=&quot;#000000&quot;&gt;&lt;span style=&quot;font-size: 35px;&quot;&gt;Identity verification&lt;/span&gt;&lt;/font&gt;&lt;/h1&gt;" style="shape=dataStorage;whiteSpace=wrap;html=1;fixedSize=1;rotation=0;align=center;fillColor=#dae8fc;strokeColor=#6c8ebf;fillStyle=auto;gradientColor=#7ea6e0;fontColor=#3399FF;" parent="1" vertex="1">
          <mxGeometry x="-1765" y="560" width="370" height="90" as="geometry" />
        </mxCell>
        <mxCell id="6P7ZVfrqg9KLVd1m-htQ-729" value="&lt;h1 style=&quot;&quot;&gt;&lt;font color=&quot;#000000&quot; style=&quot;font-size: 36px;&quot;&gt;&amp;nbsp;Payment Processors&lt;/font&gt;&lt;/h1&gt;" style="shape=dataStorage;whiteSpace=wrap;html=1;fixedSize=1;rotation=0;align=left;fillColor=#dae8fc;strokeColor=#6c8ebf;fillStyle=auto;gradientColor=#7ea6e0;fontColor=#3399FF;" parent="1" vertex="1">
          <mxGeometry x="-2195" y="750" width="390" height="155" as="geometry" />
        </mxCell>
        <mxCell id="6P7ZVfrqg9KLVd1m-htQ-730" value="&lt;h1 style=&quot;&quot;&gt;&lt;font color=&quot;#000000&quot; style=&quot;font-size: 40px;&quot;&gt;Investors&lt;/font&gt;&lt;/h1&gt;" style="shape=dataStorage;whiteSpace=wrap;html=1;fixedSize=1;rotation=0;align=center;fillColor=#dae8fc;strokeColor=#6c8ebf;fillStyle=auto;gradientColor=#7ea6e0;fontColor=#3399FF;" parent="1" vertex="1">
          <mxGeometry x="-2195" y="930" width="390" height="155" as="geometry" />
        </mxCell>
        <mxCell id="i-PT0yNXqgxVOa-vqvVV-723" value="&lt;h1&gt;commission&lt;/h1&gt;" style="shape=dataStorage;whiteSpace=wrap;html=1;fixedSize=1;fillColor=#dae8fc;strokeColor=#6c8ebf;" vertex="1" parent="1">
          <mxGeometry x="-1150" y="1198" width="340" height="149" as="geometry" />
        </mxCell>
        <mxCell id="i-PT0yNXqgxVOa-vqvVV-724" value="&lt;h1 style=&quot;line-height: 120%;&quot;&gt;subscription fees&lt;/h1&gt;" style="shape=dataStorage;whiteSpace=wrap;html=1;fixedSize=1;fillColor=#dae8fc;strokeColor=#6c8ebf;" vertex="1" parent="1">
          <mxGeometry x="-820" y="1200" width="350" height="140" as="geometry" />
        </mxCell>
        <mxCell id="i-PT0yNXqgxVOa-vqvVV-725" value="&lt;h1&gt;payroll expenses&lt;/h1&gt;&lt;h1&gt;(develpers and maintance)&lt;/h1&gt;" style="shape=dataStorage;whiteSpace=wrap;html=1;fixedSize=1;fillColor=#dae8fc;strokeColor=#6c8ebf;" vertex="1" parent="1">
          <mxGeometry x="-2180" y="1190" width="350" height="120" as="geometry" />
        </mxCell>
        <mxCell id="i-PT0yNXqgxVOa-vqvVV-726" value="&lt;h1&gt;cloud services fees&lt;/h1&gt;" style="shape=dataStorage;whiteSpace=wrap;html=1;fixedSize=1;fillColor=#dae8fc;strokeColor=#6c8ebf;" vertex="1" parent="1">
          <mxGeometry x="-2180" y="1320" width="350" height="120" as="geometry" />
        </mxCell>
        <mxCell id="i-PT0yNXqgxVOa-vqvVV-727" value="&lt;h1&gt;verification company&amp;nbsp; fees&lt;/h1&gt;" style="shape=dataStorage;whiteSpace=wrap;html=1;fixedSize=1;fillColor=#dae8fc;strokeColor=#6c8ebf;" vertex="1" parent="1">
          <mxGeometry x="-1740" y="1260" width="350" height="110" as="geometry" />
        </mxCell>
        <mxCell id="i-PT0yNXqgxVOa-vqvVV-729" value="&lt;h1&gt;ADs&lt;/h1&gt;" style="shape=dataStorage;whiteSpace=wrap;html=1;fixedSize=1;fillColor=#dae8fc;strokeColor=#6c8ebf;" vertex="1" parent="1">
          <mxGeometry x="-470" y="1200" width="280" height="140" as="geometry" />
        </mxCell>
      </root>
    </mxGraphModel>
  </diagram>
</mxfile>
